<svg width="17" height="17" viewBox="0 0 17 17" fill="none" xmlns="http://www.w3.org/2000/svg">
<path d="M11.9891 4.65183C11.0902 3.80955 9.9469 3.38069 8.67347 3.38069C6.41443 3.38069 4.50232 4.87592 3.82027 6.88501C3.6468 7.39501 3.54824 7.9398 3.54824 8.50003C3.54824 9.06024 3.6468 9.605 3.82026 10.115C4.50231 12.1241 6.41443 13.6193 8.67347 13.6193C9.84045 13.6193 10.834 13.3179 11.6106 12.8079C12.5292 12.2052 13.1403 11.305 13.3414 10.2425H8.67347V6.95457H16.8423C16.9448 7.51093 17 8.09048 17 8.69321C17 11.2818 16.0538 13.4609 14.4137 14.9407C12.9787 16.2389 11.0153 17 8.67347 17C5.28295 17 2.34975 15.0952 0.922559 12.3173C0.335128 11.1698 0 9.87162 0 8.50003C0 7.12843 0.335111 5.83025 0.922542 4.68275C2.34972 1.90479 5.28293 0 8.67347 0C11.0114 0 12.9747 0.842274 14.4768 2.21387L11.9891 4.65183Z" fill="black" fill-opacity="0.3"/>
</svg>
